# xmcd
#
# Track frame offsets:
#	150
#	32888
#	46524
#	61985
#	84622
#	98251
#	113618
#	132189
#	149698
#	167599
#	184089
#	198454
#	210320
#	222462
#	236268
#	248205
#	262236
#	282243
#	293884
#	312031
#
# Disc length: 4383 seconds
#
# Revision: 3
# Processed by: cddbd v1.5.2PL0 Copyright (c) Steve Scherf et al.
# Submitted via: audiograbber 1.83.01
#
DISCID=20111d14
DTITLE=Die Hinichen - Gruppensex Im Pensionistenheim
DYEAR=2001
DGENRE=Comedy
TTITLE0=Gruppensex Im Pensionistenheim
TTITLE1=Der Ficker
TTITLE2=G'frett Im Bett
TTITLE3=Kerzlschlicker
TTITLE4=Schonbezüge
TTITLE5=Präservativ-Rap
TTITLE6=Do Speibst Di Au
TTITLE7=A Frau Muaß Her
TTITLE8=Die Votze Meiner Frau
TTITLE9=Die Muschi Von Der Uschi
TTITLE10=Der Mann Ohne Nerven
TTITLE11=Doppler Blues
TTITLE12=Hundswürstelsteiger
TTITLE13=Familie Prolo
TTITLE14=Am Pissoir
TTITLE15=I Bin Vernarrt In Di
TTITLE16=Führt's Die Alte Nieder - Jeder Kibara...
TTITLE17=Jetzt Hol I Ma An Obe
TTITLE18=Die Fut Von Meiner Frau
TTITLE19=Jeder Kibara (Dancefloor-Version)
EXTD=
EXTT0=
EXTT1=
EXTT2=
EXTT3=
EXTT4=
EXTT5=
EXTT6=
EXTT7=
EXTT8=
EXTT9=
EXTT10=
EXTT11=
EXTT12=
EXTT13=
EXTT14=
EXTT15=
EXTT16=
EXTT17=
EXTT18=
EXTT19=
PLAYORDER=
